<svg xmlns="http://www.w3.org/2000/svg" xmlns:xlink="http://www.w3.org/1999/xlink" width="300" zoomAndPan="magnify" viewBox="0 0 224.87999 74.999997" height="100" preserveAspectRatio="xMidYMid meet" version="1.0"><defs><g/><clipPath id="aecaa92dd8"><path d="M 5 0.0195312 L 148 0.0195312 L 148 74.980469 L 5 74.980469 Z M 5 0.0195312 " clip-rule="nonzero"/></clipPath><clipPath id="0d676f62f0"><rect x="0" width="143" y="0" height="75"/></clipPath><clipPath id="0cf5e9e1d7"><path d="M 141.160156 42.984375 L 212.371094 42.984375 L 212.371094 70.71875 L 141.160156 70.71875 Z M 141.160156 42.984375 " clip-rule="nonzero"/></clipPath><clipPath id="cb0dbd4e33"><path d="M 149 0.0195312 L 222 0.0195312 L 222 53 L 149 53 Z M 149 0.0195312 " clip-rule="nonzero"/></clipPath><clipPath id="7ad6b00cef"><rect x="0" width="73" y="0" height="53"/></clipPath><clipPath id="55f107de7c"><path d="M 0.0742188 3 L 9 3 L 9 12 L 0.0742188 12 Z M 0.0742188 3 " clip-rule="nonzero"/></clipPath><clipPath id="ab6d40d54d"><path d="M 29 2 L 37.734375 2 L 37.734375 12 L 29 12 Z M 29 2 " clip-rule="nonzero"/></clipPath><clipPath id="2157750d9d"><rect x="0" width="38" y="0" height="16"/></clipPath></defs><g clip-path="url(#aecaa92dd8)"><g transform="matrix(1, 0, 0, 1, 5, -0.000000000000000847)"><g clip-path="url(#0d676f62f0)"><g fill="#000000" fill-opacity="1"><g transform="translate(0.137537, 70.741769)"><g><path d="M 64.21875 -69.0625 L 64.21875 0 L 48.5625 0 L 23.609375 -36.28125 L 23.203125 -36.28125 L 23.203125 0 L 4.453125 0 L 4.453125 -69.0625 L 20.375 -69.0625 L 44.921875 -32.921875 L 45.46875 -32.921875 L 45.46875 -69.0625 Z M 64.21875 -69.0625 "/></g></g></g><g fill="#000000" fill-opacity="1"><g transform="translate(68.806403, 70.741769)"><g><path d="M 1.625 -69.0625 L 22.53125 -69.0625 L 36.015625 -41.015625 L 36.5625 -41.015625 L 50.046875 -69.0625 L 70.953125 -69.0625 L 45.59375 -21.71875 L 45.59375 0 L 26.984375 0 L 26.984375 -21.71875 Z M 1.625 -69.0625 "/></g></g></g></g></g></g><g clip-path="url(#0cf5e9e1d7)"><path fill="#000000" d="M 157.632812 42.988281 L 212.371094 42.988281 L 195.902344 70.714844 L 141.160156 70.714844 Z M 157.632812 42.988281 " fill-opacity="1" fill-rule="nonzero"/></g><g clip-path="url(#cb0dbd4e33)"><g transform="matrix(1, 0, 0, 1, 149, -0.000000000000000847)"><g clip-path="url(#7ad6b00cef)"><g fill="#000000" fill-opacity="1"><g transform="translate(0.964231, 40.746319)"><g><path d="M 22.96875 -34.984375 L 32.453125 -34.984375 L 32.453125 -12.578125 C 32.453125 -9.910156 31.816406 -7.601562 30.546875 -5.65625 C 29.285156 -3.71875 27.519531 -2.222656 25.25 -1.171875 C 22.976562 -0.117188 20.347656 0.40625 17.359375 0.40625 C 14.335938 0.40625 11.691406 -0.117188 9.421875 -1.171875 C 7.160156 -2.222656 5.398438 -3.71875 4.140625 -5.65625 C 2.878906 -7.601562 2.25 -9.910156 2.25 -12.578125 L 2.25 -34.984375 L 11.75 -34.984375 L 11.75 -13.390625 C 11.75 -12.304688 11.988281 -11.335938 12.46875 -10.484375 C 12.945312 -9.640625 13.609375 -8.976562 14.453125 -8.5 C 15.304688 -8.03125 16.273438 -7.796875 17.359375 -7.796875 C 18.453125 -7.796875 19.421875 -8.03125 20.265625 -8.5 C 21.109375 -8.976562 21.769531 -9.640625 22.25 -10.484375 C 22.726562 -11.335938 22.96875 -12.304688 22.96875 -13.390625 Z M 22.96875 -34.984375 "/></g></g></g><g fill="#000000" fill-opacity="1"><g transform="translate(35.683035, 40.746319)"><g><path d="M 21.109375 -24.0625 C 21.023438 -25.195312 20.601562 -26.082031 19.84375 -26.71875 C 19.082031 -27.351562 17.9375 -27.671875 16.40625 -27.671875 C 15.425781 -27.671875 14.625 -27.550781 14 -27.3125 C 13.375 -27.082031 12.914062 -26.769531 12.625 -26.375 C 12.332031 -25.976562 12.179688 -25.523438 12.171875 -25.015625 C 12.140625 -24.585938 12.210938 -24.207031 12.390625 -23.875 C 12.566406 -23.539062 12.847656 -23.238281 13.234375 -22.96875 C 13.628906 -22.695312 14.125 -22.453125 14.71875 -22.234375 C 15.320312 -22.023438 16.039062 -21.832031 16.875 -21.65625 L 19.75 -21.046875 C 21.6875 -20.640625 23.34375 -20.097656 24.71875 -19.421875 C 26.09375 -18.753906 27.21875 -17.96875 28.09375 -17.0625 C 28.976562 -16.15625 29.628906 -15.132812 30.046875 -14 C 30.460938 -12.875 30.675781 -11.644531 30.6875 -10.3125 C 30.675781 -8.019531 30.097656 -6.070312 28.953125 -4.46875 C 27.816406 -2.875 26.191406 -1.660156 24.078125 -0.828125 C 21.960938 -0.00390625 19.425781 0.40625 16.46875 0.40625 C 13.425781 0.40625 10.773438 -0.0390625 8.515625 -0.9375 C 6.253906 -1.84375 4.5 -3.226562 3.25 -5.09375 C 2.007812 -6.96875 1.378906 -9.367188 1.359375 -12.296875 L 10.390625 -12.296875 C 10.441406 -11.222656 10.707031 -10.320312 11.1875 -9.59375 C 11.664062 -8.875 12.335938 -8.320312 13.203125 -7.9375 C 14.078125 -7.5625 15.117188 -7.375 16.328125 -7.375 C 17.347656 -7.375 18.195312 -7.5 18.875 -7.75 C 19.5625 -8 20.082031 -8.347656 20.4375 -8.796875 C 20.789062 -9.242188 20.972656 -9.75 20.984375 -10.3125 C 20.972656 -10.851562 20.796875 -11.320312 20.453125 -11.71875 C 20.117188 -12.125 19.570312 -12.488281 18.8125 -12.8125 C 18.050781 -13.144531 17.019531 -13.453125 15.71875 -13.734375 L 12.234375 -14.484375 C 9.128906 -15.160156 6.6875 -16.285156 4.90625 -17.859375 C 3.125 -19.441406 2.238281 -21.597656 2.25 -24.328125 C 2.238281 -26.546875 2.832031 -28.488281 4.03125 -30.15625 C 5.238281 -31.832031 6.910156 -33.132812 9.046875 -34.0625 C 11.179688 -35 13.632812 -35.46875 16.40625 -35.46875 C 19.226562 -35.46875 21.671875 -34.992188 23.734375 -34.046875 C 25.796875 -33.097656 27.382812 -31.765625 28.5 -30.046875 C 29.625 -28.335938 30.191406 -26.34375 30.203125 -24.0625 Z M 21.109375 -24.0625 "/></g></g></g></g></g></g><g transform="matrix(1, 0, 0, 1, 158, 49)"><g clip-path="url(#2157750d9d)"><g clip-path="url(#55f107de7c)"><g fill="#ffffff" fill-opacity="1"><g transform="translate(0.257962, 11.821908)"><g><path d="M 8.140625 -8.765625 L 8.140625 0 L 6.15625 0 L 3 -4.609375 L 2.9375 -4.609375 L 2.9375 0 L 0.5625 0 L 0.5625 -8.765625 L 2.578125 -8.765625 L 5.703125 -4.171875 L 5.765625 -4.171875 L 5.765625 -8.765625 Z M 8.140625 -8.765625 "/></g></g></g></g><g fill="#ffffff" fill-opacity="1"><g transform="translate(8.964717, 11.821908)"><g><path d="M 0.5625 0 L 0.5625 -8.765625 L 6.875 -8.765625 L 6.875 -6.84375 L 2.9375 -6.84375 L 2.9375 -5.34375 L 6.546875 -5.34375 L 6.546875 -3.421875 L 2.9375 -3.421875 L 2.9375 -1.921875 L 6.859375 -1.921875 L 6.859375 0 Z M 0.5625 0 "/></g></g></g><g fill="#ffffff" fill-opacity="1"><g transform="translate(16.456974, 11.821908)"><g><path d="M 2.796875 0 L 0.203125 -8.765625 L 2.859375 -8.765625 L 4.0625 -3.375 L 4.125 -3.375 L 5.546875 -8.765625 L 7.625 -8.765625 L 9.046875 -3.359375 L 9.125 -3.359375 L 10.3125 -8.765625 L 12.96875 -8.765625 L 10.390625 0 L 8.109375 0 L 6.625 -4.890625 L 6.546875 -4.890625 L 5.0625 0 Z M 2.796875 0 "/></g></g></g><g clip-path="url(#ab6d40d54d)"><g fill="#ffffff" fill-opacity="1"><g transform="translate(29.491427, 11.821908)"><g><path d="M 5.28125 -6.015625 C 5.257812 -6.304688 5.15625 -6.53125 4.96875 -6.6875 C 4.78125 -6.851562 4.492188 -6.9375 4.109375 -6.9375 C 3.859375 -6.9375 3.65625 -6.90625 3.5 -6.84375 C 3.34375 -6.78125 3.226562 -6.695312 3.15625 -6.59375 C 3.082031 -6.5 3.046875 -6.390625 3.046875 -6.265625 C 3.035156 -6.160156 3.050781 -6.066406 3.09375 -5.984375 C 3.144531 -5.898438 3.21875 -5.820312 3.3125 -5.75 C 3.40625 -5.6875 3.53125 -5.625 3.6875 -5.5625 C 3.84375 -5.507812 4.023438 -5.460938 4.234375 -5.421875 L 4.9375 -5.265625 C 5.425781 -5.160156 5.84375 -5.023438 6.1875 -4.859375 C 6.53125 -4.691406 6.8125 -4.492188 7.03125 -4.265625 C 7.25 -4.046875 7.410156 -3.789062 7.515625 -3.5 C 7.617188 -3.21875 7.675781 -2.910156 7.6875 -2.578125 C 7.675781 -2.003906 7.53125 -1.515625 7.25 -1.109375 C 6.96875 -0.710938 6.5625 -0.410156 6.03125 -0.203125 C 5.5 0.00390625 4.863281 0.109375 4.125 0.109375 C 3.363281 0.109375 2.695312 -0.00390625 2.125 -0.234375 C 1.5625 -0.460938 1.125 -0.8125 0.8125 -1.28125 C 0.5 -1.75 0.34375 -2.347656 0.34375 -3.078125 L 2.59375 -3.078125 C 2.613281 -2.804688 2.679688 -2.578125 2.796875 -2.390625 C 2.921875 -2.210938 3.09375 -2.078125 3.3125 -1.984375 C 3.53125 -1.890625 3.789062 -1.84375 4.09375 -1.84375 C 4.34375 -1.84375 4.550781 -1.875 4.71875 -1.9375 C 4.894531 -2 5.023438 -2.085938 5.109375 -2.203125 C 5.203125 -2.316406 5.25 -2.441406 5.25 -2.578125 C 5.25 -2.710938 5.207031 -2.832031 5.125 -2.9375 C 5.039062 -3.039062 4.898438 -3.128906 4.703125 -3.203125 C 4.515625 -3.285156 4.257812 -3.363281 3.9375 -3.4375 L 3.0625 -3.625 C 2.289062 -3.789062 1.679688 -4.070312 1.234375 -4.46875 C 0.785156 -4.863281 0.5625 -5.40625 0.5625 -6.09375 C 0.5625 -6.644531 0.710938 -7.128906 1.015625 -7.546875 C 1.316406 -7.960938 1.734375 -8.285156 2.265625 -8.515625 C 2.796875 -8.753906 3.410156 -8.875 4.109375 -8.875 C 4.816406 -8.875 5.425781 -8.753906 5.9375 -8.515625 C 6.457031 -8.285156 6.859375 -7.957031 7.140625 -7.53125 C 7.421875 -7.101562 7.5625 -6.597656 7.5625 -6.015625 Z M 5.28125 -6.015625 "/></g></g></g></g></g></g></svg>